<svg width="40" height="40" viewBox="0 0 40 40" fill="none" xmlns="http://www.w3.org/2000/svg">
<rect width="40" height="40" rx="8" fill="#49D49D"/>
<g clip-path="url(#clip0_65:1207)">
<path d="M26.3466 24.1631C27.8595 22.0985 28.5372 19.5388 28.2439 16.9961C27.9507 14.4534 26.7082 12.1152 24.765 10.4492C22.8218 8.78327 20.3212 7.91246 17.7635 8.01102C15.2058 8.10957 12.7797 9.17021 10.9704 10.9808C9.16118 12.7913 8.10227 15.2182 8.00555 17.7759C7.90883 20.3337 8.78143 22.8336 10.4488 24.7757C12.1161 26.7177 14.4552 27.9585 16.9982 28.2499C19.5411 28.5414 22.1003 27.8619 24.1638 26.3475H24.1622C24.2091 26.41 24.2591 26.4693 24.3153 26.5271L30.3309 32.5428C30.6239 32.836 31.0214 33.0007 31.4359 33.0009C31.8503 33.001 32.2479 32.8365 32.5411 32.5435C32.8343 32.2506 32.9991 31.8531 32.9992 31.4386C32.9994 31.0241 32.8349 30.6266 32.5419 30.3334L26.5263 24.3178C26.4704 24.2612 26.4103 24.209 26.3466 24.1615V24.1631ZM26.7497 18.1568C26.7497 19.2854 26.5274 20.4029 26.0955 21.4455C25.6637 22.4882 25.0306 23.4355 24.2326 24.2335C23.4346 25.0315 22.4873 25.6645 21.4446 26.0964C20.402 26.5283 19.2845 26.7506 18.1559 26.7506C17.0274 26.7506 15.9099 26.5283 14.8673 26.0964C13.8246 25.6645 12.8772 25.0315 12.0792 24.2335C11.2812 23.4355 10.6482 22.4882 10.2164 21.4455C9.78448 20.4029 9.56219 19.2854 9.56219 18.1568C9.56219 15.8776 10.4676 13.6918 12.0792 12.0801C13.6909 10.4685 15.8767 9.56308 18.1559 9.56308C20.4351 9.56308 22.621 10.4685 24.2326 12.0801C25.8443 13.6918 26.7497 15.8776 26.7497 18.1568V18.1568Z" fill="white"/>
</g>
<defs>
<clipPath id="clip0_65:1207">
<rect width="25" height="25" fill="white" transform="translate(8 8)"/>
</clipPath>
</defs>
</svg>
