<svg width="311" height="80" viewBox="0 0 311 80" fill="none" xmlns="http://www.w3.org/2000/svg">
<path d="M60.352 55.18C59.464 55.18 58.828 54.988 58.444 54.604C58.06 54.196 57.868 53.44 57.868 52.336C57.868 51.592 57.94 50.644 58.084 49.492C58.252 48.316 58.516 46.708 58.876 44.668C59.5 40.9 59.992 37.636 60.352 34.876C60.568 33.148 60.676 31.708 60.676 30.556C60.676 29.476 60.28 28.936 59.488 28.936C58.864 28.936 58.108 29.26 57.22 29.908C56.356 30.532 55.396 31.54 54.34 32.932C54.004 33.388 53.632 33.616 53.224 33.616C52.888 33.616 52.588 33.46 52.324 33.148C52.084 32.812 51.964 32.44 51.964 32.032C51.964 31.648 52.036 31.264 52.18 30.88C52.348 30.472 52.612 30.016 52.972 29.512C54.124 27.904 55.408 26.668 56.824 25.804C58.24 24.916 59.656 24.472 61.072 24.472C62.392 24.472 63.4 24.892 64.096 25.732C64.816 26.572 65.176 27.796 65.176 29.404C65.176 30.052 65.116 30.82 64.996 31.708C64.876 32.572 64.768 33.28 64.672 33.832C64.576 34.384 64.504 34.768 64.456 34.984C65.824 31.072 67.36 28.348 69.064 26.812C70.768 25.252 72.64 24.472 74.68 24.472C76.24 24.472 77.464 25.024 78.352 26.128C79.264 27.232 79.72 28.792 79.72 30.808C79.72 31.6 79.612 32.584 79.396 33.76C80.596 30.448 82 28.072 83.608 26.632C85.216 25.192 87.064 24.472 89.152 24.472C90.832 24.472 92.116 25.012 93.004 26.092C93.916 27.172 94.372 28.684 94.372 30.628C94.372 31.684 94.216 32.968 93.904 34.48L91.708 44.776C91.468 45.976 91.348 47.008 91.348 47.872C91.348 48.88 91.576 49.636 92.032 50.14C92.512 50.644 93.172 50.896 94.012 50.896C94.804 50.896 95.572 50.632 96.316 50.104C97.084 49.576 97.984 48.7 99.016 47.476C99.304 47.14 99.628 46.972 99.988 46.972C100.3 46.972 100.54 47.116 100.708 47.404C100.9 47.692 100.996 48.088 100.996 48.592C100.996 49.528 100.768 50.272 100.312 50.824C99.064 52.336 97.828 53.44 96.604 54.136C95.38 54.832 94.096 55.18 92.752 55.18C90.712 55.18 89.116 54.58 87.964 53.38C86.812 52.156 86.236 50.524 86.236 48.484C86.236 47.068 86.524 45.016 87.1 42.328L88.54 35.74C88.588 35.524 88.672 35.14 88.792 34.588C88.912 34.036 89.008 33.52 89.08 33.04C89.152 32.536 89.188 32.044 89.188 31.564C89.188 30.724 89.02 30.1 88.684 29.692C88.372 29.26 87.916 29.044 87.316 29.044C86.188 29.044 85 29.776 83.752 31.24C82.528 32.68 81.352 35.08 80.224 38.44C79.12 41.8 78.22 46.168 77.524 51.544C77.356 52.984 77.056 53.956 76.624 54.46C76.216 54.94 75.544 55.18 74.608 55.18C73.792 55.18 73.192 54.988 72.808 54.604C72.448 54.22 72.268 53.5 72.268 52.444C72.268 51.46 72.4 50.176 72.664 48.592C72.928 46.984 73.264 45.1 73.672 42.94C74.776 37.132 75.328 33.388 75.328 31.708C75.328 30.796 75.148 30.124 74.788 29.692C74.452 29.26 73.936 29.044 73.24 29.044C72.064 29.044 70.852 29.716 69.604 31.06C68.356 32.38 67.132 34.744 65.932 38.152C64.756 41.536 63.772 46.12 62.98 51.904C62.812 53.128 62.56 53.98 62.224 54.46C61.912 54.94 61.288 55.18 60.352 55.18ZM114.151 46.972C114.463 46.972 114.703 47.116 114.871 47.404C115.063 47.692 115.159 48.088 115.159 48.592C115.159 49.552 114.931 50.296 114.475 50.824C113.587 51.904 112.327 52.9 110.695 53.812C109.087 54.724 107.359 55.18 105.511 55.18C102.991 55.18 101.035 54.496 99.6432 53.128C98.2512 51.76 97.5552 49.888 97.5552 47.512C97.5552 45.856 97.9032 44.32 98.5992 42.904C99.2952 41.464 100.255 40.324 101.479 39.484C102.727 38.644 104.131 38.224 105.691 38.224C107.083 38.224 108.199 38.644 109.039 39.484C109.879 40.3 110.299 41.416 110.299 42.832C110.299 44.488 109.699 45.916 108.499 47.116C107.323 48.292 105.319 49.228 102.487 49.924C103.087 51.028 104.227 51.58 105.907 51.58C106.987 51.58 108.211 51.208 109.579 50.464C110.971 49.696 112.171 48.7 113.179 47.476C113.467 47.14 113.791 46.972 114.151 46.972ZM105.079 41.752C104.191 41.752 103.435 42.268 102.811 43.3C102.211 44.332 101.911 45.58 101.911 47.044V47.116C103.327 46.78 104.443 46.276 105.259 45.604C106.075 44.932 106.483 44.152 106.483 43.264C106.483 42.808 106.351 42.448 106.087 42.184C105.847 41.896 105.511 41.752 105.079 41.752ZM115.9 55.18C114.82 55.18 113.932 54.688 113.236 53.704C112.564 52.696 112.228 51.448 112.228 49.96C112.228 48.16 112.348 46.516 112.588 45.028C112.828 43.516 113.224 41.92 113.776 40.24C114.016 39.52 114.352 39.004 114.784 38.692C115.216 38.38 115.9 38.224 116.836 38.224C117.364 38.224 117.724 38.308 117.916 38.476C118.132 38.644 118.24 38.896 118.24 39.232C118.24 39.424 118.108 40.072 117.844 41.176C117.604 42.064 117.412 42.868 117.268 43.588C116.788 46.108 116.548 47.788 116.548 48.628C116.548 49.132 116.608 49.492 116.728 49.708C116.848 49.9 117.04 49.996 117.304 49.996C117.664 49.996 118.108 49.636 118.636 48.916C119.188 48.196 119.764 47.104 120.364 45.64C120.988 44.176 121.588 42.376 122.164 40.24C122.356 39.52 122.644 39.004 123.028 38.692C123.436 38.38 124.036 38.224 124.828 38.224C125.38 38.224 125.764 38.296 125.98 38.44C126.196 38.56 126.304 38.8 126.304 39.16C126.304 39.76 126.004 41.404 125.404 44.092C124.732 47.164 124.396 49.06 124.396 49.78C124.396 50.236 124.492 50.596 124.684 50.86C124.876 51.1 125.128 51.22 125.44 51.22C125.92 51.22 126.484 50.932 127.132 50.356C127.804 49.756 128.692 48.796 129.796 47.476C130.084 47.14 130.408 46.972 130.768 46.972C131.08 46.972 131.32 47.116 131.488 47.404C131.68 47.692 131.776 48.088 131.776 48.592C131.776 49.552 131.548 50.296 131.092 50.824C130.06 52.096 128.944 53.14 127.744 53.956C126.568 54.772 125.224 55.18 123.712 55.18C122.56 55.18 121.708 54.736 121.156 53.848C120.628 52.96 120.364 51.712 120.364 50.104C119.956 51.736 119.344 52.996 118.528 53.884C117.712 54.748 116.836 55.18 115.9 55.18ZM137.929 55.18C136.273 55.18 134.773 54.772 133.429 53.956C132.109 53.14 131.065 51.964 130.297 50.428C129.529 48.868 129.145 47.032 129.145 44.92C129.145 41.272 129.925 37.9 131.485 34.804C133.045 31.684 135.349 29.188 138.397 27.316C141.445 25.42 145.105 24.472 149.377 24.472C150.481 24.472 151.657 24.556 152.905 24.724C154.177 24.892 155.329 25.144 156.361 25.48C157.033 25.672 157.369 26.152 157.369 26.92C157.369 27.544 157.129 28.132 156.649 28.684C156.193 29.236 155.653 29.512 155.029 29.512C154.837 29.512 154.693 29.5 154.597 29.476C153.349 29.188 152.281 28.984 151.393 28.864C150.505 28.72 149.569 28.648 148.585 28.648C145.537 28.648 142.945 29.392 140.809 30.88C138.673 32.344 137.077 34.288 136.021 36.712C134.965 39.136 134.437 41.752 134.437 44.56C134.437 46.6 134.833 48.184 135.625 49.312C136.441 50.416 137.497 50.968 138.793 50.968C140.257 50.968 141.541 50.368 142.645 49.168C143.749 47.968 144.757 46.024 145.669 43.336C146.581 40.648 147.481 37 148.369 32.392C148.513 31.72 148.801 31.264 149.233 31.024C149.665 30.784 150.241 30.664 150.961 30.664C152.665 30.664 153.517 31.216 153.517 32.32C153.517 32.512 153.481 32.752 153.409 33.04C152.785 35.368 152.209 37.948 151.681 40.78C151.177 43.588 150.925 45.724 150.925 47.188C150.925 48.484 151.117 49.432 151.501 50.032C151.885 50.608 152.473 50.896 153.265 50.896C154.033 50.896 154.765 50.644 155.461 50.14C156.157 49.612 157.033 48.724 158.089 47.476C158.377 47.14 158.701 46.972 159.061 46.972C159.373 46.972 159.613 47.116 159.781 47.404C159.973 47.692 160.069 48.088 160.069 48.592C160.069 49.528 159.841 50.272 159.385 50.824C158.209 52.24 157.057 53.32 155.929 54.064C154.801 54.808 153.421 55.18 151.789 55.18C150.109 55.18 148.753 54.7 147.721 53.74C146.689 52.756 146.041 51.376 145.777 49.6C144.001 53.32 141.385 55.18 137.929 55.18ZM175.122 46.972C175.434 46.972 175.674 47.116 175.842 47.404C176.034 47.692 176.13 48.088 176.13 48.592C176.13 49.48 175.902 50.224 175.446 50.824C174.318 52.288 172.914 53.44 171.234 54.28C169.578 55.12 167.706 55.54 165.618 55.54C163.986 55.54 162.57 55.3 161.37 54.82C160.17 54.316 159.246 53.644 158.598 52.804C157.974 51.94 157.662 50.98 157.662 49.924C157.662 48.34 158.298 46.936 159.57 45.712C160.842 44.488 162.666 43.312 165.042 42.184L159.138 42.328C158.61 42.352 158.202 42.172 157.914 41.788C157.65 41.38 157.518 40.9 157.518 40.348C157.518 39.772 157.65 39.268 157.914 38.836C158.202 38.38 158.586 38.152 159.066 38.152C160.17 38.152 161.646 38.236 163.494 38.404C163.878 38.428 164.574 38.476 165.582 38.548C166.614 38.62 167.478 38.656 168.174 38.656C168.414 38.656 168.87 38.56 169.542 38.368C169.662 38.344 169.89 38.284 170.226 38.188C170.586 38.092 170.886 38.044 171.126 38.044C171.51 38.044 171.822 38.212 172.062 38.548C172.326 38.884 172.458 39.4 172.458 40.096C172.458 40.864 172.278 41.464 171.918 41.896C171.558 42.328 170.994 42.712 170.226 43.048C168.042 43.984 166.23 44.992 164.79 46.072C163.35 47.128 162.63 48.184 162.63 49.24C162.63 49.912 162.942 50.464 163.566 50.896C164.19 51.328 165.114 51.544 166.338 51.544C167.682 51.544 169.038 51.208 170.406 50.536C171.798 49.864 173.046 48.844 174.15 47.476C174.438 47.14 174.762 46.972 175.122 46.972ZM189.245 46.972C189.557 46.972 189.797 47.116 189.965 47.404C190.157 47.692 190.253 48.088 190.253 48.592C190.253 49.552 190.025 50.296 189.569 50.824C188.681 51.904 187.421 52.9 185.789 53.812C184.181 54.724 182.453 55.18 180.605 55.18C178.085 55.18 176.129 54.496 174.737 53.128C173.345 51.76 172.649 49.888 172.649 47.512C172.649 45.856 172.997 44.32 173.693 42.904C174.389 41.464 175.349 40.324 176.573 39.484C177.821 38.644 179.225 38.224 180.785 38.224C182.177 38.224 183.293 38.644 184.133 39.484C184.973 40.3 185.393 41.416 185.393 42.832C185.393 44.488 184.793 45.916 183.593 47.116C182.417 48.292 180.413 49.228 177.581 49.924C178.181 51.028 179.321 51.58 181.001 51.58C182.081 51.58 183.305 51.208 184.673 50.464C186.065 49.696 187.265 48.7 188.273 47.476C188.561 47.14 188.885 46.972 189.245 46.972ZM180.173 41.752C179.285 41.752 178.529 42.268 177.905 43.3C177.305 44.332 177.005 45.58 177.005 47.044V47.116C178.421 46.78 179.537 46.276 180.353 45.604C181.169 44.932 181.577 44.152 181.577 43.264C181.577 42.808 181.445 42.448 181.181 42.184C180.941 41.896 180.605 41.752 180.173 41.752ZM189.878 55.18C188.966 55.18 188.318 54.7 187.934 53.74C187.574 52.78 187.394 51.244 187.394 49.132C187.394 46.012 187.838 43.048 188.726 40.24C188.942 39.544 189.29 39.04 189.77 38.728C190.274 38.392 190.97 38.224 191.858 38.224C192.338 38.224 192.674 38.284 192.866 38.404C193.058 38.524 193.154 38.752 193.154 39.088C193.154 39.472 192.974 40.336 192.614 41.68C192.374 42.64 192.182 43.48 192.038 44.2C191.894 44.92 191.774 45.808 191.678 46.864C192.47 44.8 193.358 43.12 194.342 41.824C195.326 40.528 196.286 39.604 197.222 39.052C198.182 38.5 199.058 38.224 199.85 38.224C201.41 38.224 202.19 39.004 202.19 40.564C202.19 40.876 202.082 41.632 201.866 42.832C201.674 43.792 201.578 44.392 201.578 44.632C201.578 45.472 201.878 45.892 202.478 45.892C203.15 45.892 204.014 45.364 205.07 44.308C205.382 43.996 205.706 43.84 206.042 43.84C206.354 43.84 206.594 43.984 206.762 44.272C206.954 44.536 207.05 44.896 207.05 45.352C207.05 46.24 206.81 46.936 206.33 47.44C205.658 48.136 204.866 48.736 203.954 49.24C203.066 49.72 202.118 49.96 201.11 49.96C199.838 49.96 198.866 49.636 198.194 48.988C197.546 48.34 197.222 47.464 197.222 46.36C197.222 46 197.258 45.64 197.33 45.28C197.378 44.8 197.402 44.476 197.402 44.308C197.402 43.924 197.27 43.732 197.006 43.732C196.646 43.732 196.166 44.14 195.566 44.956C194.99 45.748 194.414 46.804 193.838 48.124C193.262 49.444 192.794 50.836 192.434 52.3C192.17 53.428 191.858 54.196 191.498 54.604C191.162 54.988 190.622 55.18 189.878 55.18ZM233.081 39.448C233.633 39.448 234.029 39.568 234.269 39.808C234.533 40.048 234.665 40.36 234.665 40.744C234.665 41.368 234.473 41.92 234.089 42.4C233.729 42.88 233.153 43.132 232.361 43.156C230.441 43.204 228.737 43.06 227.249 42.724C225.545 46.3 223.481 49.276 221.057 51.652C218.657 54.004 216.245 55.18 213.821 55.18C211.325 55.18 209.465 53.728 208.241 50.824C207.017 47.92 206.405 43.996 206.405 39.052C206.405 34.828 206.705 31.036 207.305 27.676C207.521 26.428 207.821 25.588 208.205 25.156C208.613 24.7 209.297 24.472 210.257 24.472C211.841 24.472 212.633 25.156 212.633 26.524C212.633 26.668 212.609 26.932 212.561 27.316C211.841 31.636 211.481 35.548 211.481 39.052C211.481 42.724 211.781 45.52 212.381 47.44C213.005 49.336 213.929 50.284 215.153 50.284C216.401 50.284 217.757 49.42 219.221 47.692C220.685 45.964 222.029 43.792 223.253 41.176C221.789 40.264 220.685 39.088 219.941 37.648C219.197 36.184 218.825 34.504 218.825 32.608C218.825 30.712 219.113 29.116 219.689 27.82C220.289 26.5 221.093 25.516 222.101 24.868C223.133 24.22 224.273 23.896 225.521 23.896C227.057 23.896 228.269 24.448 229.157 25.552C230.069 26.656 230.525 28.168 230.525 30.088C230.525 32.848 229.925 35.86 228.725 39.124C229.997 39.34 231.449 39.448 233.081 39.448ZM222.461 32.356C222.461 34.708 223.217 36.448 224.729 37.576C225.665 34.888 226.133 32.668 226.133 30.916C226.133 29.908 226.001 29.176 225.737 28.72C225.473 28.24 225.113 28 224.657 28C224.009 28 223.481 28.384 223.073 29.152C222.665 29.896 222.461 30.964 222.461 32.356ZM235.59 55.18C234.03 55.18 232.89 54.628 232.17 53.524C231.474 52.42 231.126 50.956 231.126 49.132C231.126 48.052 231.258 46.672 231.522 44.992C231.81 43.288 232.17 41.704 232.602 40.24C232.818 39.472 233.106 38.944 233.466 38.656C233.826 38.368 234.402 38.224 235.194 38.224C236.418 38.224 237.03 38.632 237.03 39.448C237.03 40.048 236.802 41.44 236.346 43.624C235.77 46.264 235.482 48.052 235.482 48.988C235.482 49.708 235.578 50.26 235.77 50.644C235.962 51.028 236.286 51.22 236.742 51.22C237.174 51.22 237.714 50.92 238.362 50.32C239.01 49.72 239.874 48.772 240.954 47.476C241.242 47.14 241.566 46.972 241.926 46.972C242.238 46.972 242.478 47.116 242.646 47.404C242.838 47.692 242.934 48.088 242.934 48.592C242.934 49.552 242.706 50.296 242.25 50.824C239.874 53.728 237.654 55.18 235.59 55.18ZM235.518 35.848C235.182 35.848 234.882 35.728 234.618 35.488C234.378 35.224 234.258 34.912 234.258 34.552C234.258 34.384 234.318 34.156 234.438 33.868L237.786 26.38C238.002 25.9 238.278 25.552 238.614 25.336C238.974 25.096 239.37 24.976 239.802 24.976C240.402 24.976 240.93 25.192 241.386 25.624C241.866 26.056 242.106 26.596 242.106 27.244C242.106 27.916 241.842 28.588 241.314 29.26L236.67 35.236C236.358 35.644 235.974 35.848 235.518 35.848ZM260.469 46.972C260.781 46.972 261.021 47.116 261.189 47.404C261.381 47.692 261.477 48.088 261.477 48.592C261.477 49.552 261.249 50.296 260.793 50.824C259.809 52.024 258.729 53.056 257.553 53.92C256.377 54.76 255.213 55.18 254.061 55.18C252.237 55.18 250.845 54.112 249.885 51.976C248.877 53.248 247.989 54.1 247.221 54.532C246.477 54.964 245.601 55.18 244.593 55.18C243.129 55.18 241.917 54.64 240.957 53.56C240.021 52.456 239.553 51.028 239.553 49.276C239.553 47.356 239.961 45.58 240.777 43.948C241.593 42.292 242.709 40.948 244.125 39.916C245.565 38.86 247.173 38.236 248.949 38.044C249.405 33.388 250.269 29.416 251.541 26.128C252.837 22.816 254.529 21.16 256.617 21.16C257.649 21.16 258.501 21.628 259.173 22.564C259.869 23.5 260.217 24.916 260.217 26.812C260.217 29.5 259.557 32.644 258.237 36.244C256.917 39.844 255.153 43.54 252.945 47.332C253.041 48.724 253.245 49.72 253.557 50.32C253.893 50.92 254.313 51.22 254.817 51.22C255.465 51.22 256.125 50.932 256.797 50.356C257.469 49.78 258.369 48.82 259.497 47.476C259.785 47.14 260.109 46.972 260.469 46.972ZM256.221 24.688C255.765 24.688 255.309 25.504 254.853 27.136C254.397 28.744 254.001 30.856 253.665 33.472C253.353 36.088 253.125 38.824 252.981 41.68C255.669 35.824 257.013 31.12 257.013 27.568C257.013 26.656 256.929 25.948 256.761 25.444C256.617 24.94 256.437 24.688 256.221 24.688ZM245.853 51.544C246.309 51.544 246.765 51.364 247.221 51.004C247.677 50.62 248.253 49.924 248.949 48.916C248.709 47.62 248.589 46.168 248.589 44.56C248.589 43.984 248.613 43.048 248.661 41.752C247.341 42.16 246.237 43.048 245.349 44.416C244.485 45.76 244.053 47.26 244.053 48.916C244.053 50.668 244.653 51.544 245.853 51.544ZM274.604 46.972C274.916 46.972 275.156 47.116 275.324 47.404C275.516 47.692 275.612 48.088 275.612 48.592C275.612 49.552 275.384 50.296 274.928 50.824C274.04 51.904 272.78 52.9 271.148 53.812C269.54 54.724 267.812 55.18 265.964 55.18C263.444 55.18 261.488 54.496 260.096 53.128C258.704 51.76 258.008 49.888 258.008 47.512C258.008 45.856 258.356 44.32 259.052 42.904C259.748 41.464 260.708 40.324 261.932 39.484C263.18 38.644 264.584 38.224 266.144 38.224C267.536 38.224 268.652 38.644 269.492 39.484C270.332 40.3 270.752 41.416 270.752 42.832C270.752 44.488 270.152 45.916 268.952 47.116C267.776 48.292 265.772 49.228 262.94 49.924C263.54 51.028 264.68 51.58 266.36 51.58C267.44 51.58 268.664 51.208 270.032 50.464C271.424 49.696 272.624 48.7 273.632 47.476C273.92 47.14 274.244 46.972 274.604 46.972ZM265.532 41.752C264.644 41.752 263.888 42.268 263.264 43.3C262.664 44.332 262.364 45.58 262.364 47.044V47.116C263.78 46.78 264.896 46.276 265.712 45.604C266.528 44.932 266.936 44.152 266.936 43.264C266.936 42.808 266.804 42.448 266.54 42.184C266.3 41.896 265.964 41.752 265.532 41.752ZM278.765 55.18C277.349 55.18 276.137 54.832 275.129 54.136C274.145 53.416 273.401 52.48 272.897 51.328C272.393 50.176 272.141 48.94 272.141 47.62C272.141 45.796 272.477 44.176 273.149 42.76C273.845 41.32 274.781 40.204 275.957 39.412C277.133 38.596 278.453 38.188 279.917 38.188C281.333 38.188 282.545 38.548 283.553 39.268C284.561 39.964 285.317 40.888 285.821 42.04C286.325 43.192 286.577 44.428 286.577 45.748C286.577 47.572 286.229 49.204 285.533 50.644C284.837 52.06 283.889 53.176 282.689 53.992C281.513 54.784 280.205 55.18 278.765 55.18ZM279.161 51.292C279.977 51.292 280.661 50.848 281.213 49.96C281.789 49.072 282.077 47.776 282.077 46.072C282.077 44.752 281.837 43.756 281.357 43.084C280.877 42.412 280.301 42.076 279.629 42.076C278.765 42.076 278.045 42.52 277.469 43.408C276.917 44.272 276.641 45.568 276.641 47.296C276.641 48.664 276.881 49.672 277.361 50.32C277.841 50.968 278.441 51.292 279.161 51.292ZM295.514 55.972C294.266 55.972 293.306 55.684 292.634 55.108C291.986 54.532 291.662 53.884 291.662 53.164C291.662 52.54 291.89 52 292.346 51.544C292.802 51.088 293.474 50.86 294.362 50.86C294.674 50.86 295.034 50.896 295.442 50.968C295.874 51.016 296.198 51.052 296.414 51.076C296.39 50.452 296.246 49.864 295.982 49.312C295.742 48.76 295.43 48.232 295.046 47.728C294.662 47.2 294.302 46.744 293.966 46.36C293.222 47.776 292.478 48.952 291.734 49.888C291.014 50.824 290.222 51.712 289.358 52.552C288.926 52.984 288.47 53.2 287.99 53.2C287.606 53.2 287.294 53.068 287.054 52.804C286.814 52.516 286.694 52.168 286.694 51.76C286.694 51.28 286.862 50.836 287.198 50.428L287.666 49.852C288.986 48.22 289.982 46.876 290.654 45.82C291.086 45.124 291.518 44.296 291.95 43.336C292.406 42.376 292.994 41.068 293.714 39.412C294.17 38.356 295.118 37.828 296.558 37.828C297.23 37.828 297.698 37.888 297.962 38.008C298.226 38.128 298.358 38.32 298.358 38.584C298.358 38.728 298.31 38.956 298.214 39.268C298.118 39.58 297.986 39.892 297.818 40.204C297.386 41.068 297.17 41.8 297.17 42.4C297.17 42.76 297.29 43.156 297.53 43.588C297.794 44.02 298.19 44.56 298.718 45.208C299.486 46.216 300.062 47.08 300.446 47.8C300.854 48.496 301.058 49.264 301.058 50.104C301.058 51.112 300.818 52.072 300.338 52.984C299.882 53.872 299.234 54.592 298.394 55.144C297.554 55.696 296.594 55.972 295.514 55.972Z" fill="#564946"/>
<path d="M15 37.2075V47.7925C15 48.0137 15.0586 48.2309 15.1699 48.422C15.2812 48.6131 15.4413 48.7713 15.6337 48.8803C15.8261 48.9894 16.044 49.0454 16.2652 49.0427C16.4863 49.04 16.7028 48.9787 16.8925 48.865L25.7125 43.5725C25.8979 43.4616 26.0513 43.3044 26.1579 43.1164C26.2644 42.9285 26.3204 42.7161 26.3204 42.5C26.3204 42.284 26.2644 42.0716 26.1579 41.8836C26.0513 41.6957 25.8979 41.5385 25.7125 41.4275L16.8925 36.135C16.7026 36.0213 16.4859 35.9599 16.2645 35.9574C16.0432 35.9548 15.8251 36.011 15.6326 36.1204C15.4401 36.2297 15.2801 36.3882 15.169 36.5797C15.0578 36.7711 14.9995 36.9887 15 37.21V37.2075Z" fill="#564946"/>
<path d="M35 55V31.25L23.75 20H10C8.67392 20 7.40215 20.5268 6.46447 21.4645C5.52678 22.4021 5 23.6739 5 25V55C5 56.3261 5.52678 57.5979 6.46447 58.5355C7.40215 59.4732 8.67392 60 10 60H30C31.3261 60 32.5979 59.4732 33.5355 58.5355C34.4732 57.5979 35 56.3261 35 55ZM23.75 27.5C23.75 28.4946 24.1451 29.4484 24.8483 30.1517C25.5516 30.8549 26.5054 31.25 27.5 31.25H32.5V55C32.5 55.663 32.2366 56.2989 31.7678 56.7678C31.2989 57.2366 30.663 57.5 30 57.5H10C9.33696 57.5 8.70107 57.2366 8.23223 56.7678C7.76339 56.2989 7.5 55.663 7.5 55V25C7.5 24.337 7.76339 23.7011 8.23223 23.2322C8.70107 22.7634 9.33696 22.5 10 22.5H23.75V27.5Z" fill="#564946"/>
</svg>
